<svg preserveAspectRatio="none" overflow="visible" style="display: block;" width="28.8" height="28.8" viewBox="0 0 28.8 28.8" fill="none" xmlns="http://www.w3.org/2000/svg">
<g id="&#195;&#141;cones">
<path id="Vector" d="M22.86 5.892C21.7597 4.78093 20.4492 3.89996 19.005 3.30044C17.5608 2.70091 16.0117 2.39482 14.448 2.4C7.896 2.4 2.556 7.74 2.556 14.292C2.556 16.392 3.108 18.432 4.14 20.232L2.46 26.4L8.76 24.744C10.5 25.692 12.456 26.196 14.448 26.196C21 26.196 26.34 20.856 26.34 14.304C26.34 11.124 25.104 8.136 22.86 5.892ZM14.448 24.18C12.672 24.18 10.932 23.7 9.408 22.8L9.048 22.584L5.304 23.568L6.3 19.92L6.06 19.548C5.07306 17.9725 4.54911 16.1511 4.548 14.292C4.548 8.844 8.988 4.404 14.436 4.404C17.076 4.404 19.56 5.436 21.42 7.308C22.3411 8.22464 23.0711 9.31505 23.5676 10.516C24.064 11.7169 24.317 13.0045 24.312 14.304C24.336 19.752 19.896 24.18 14.448 24.18ZM19.872 16.788C19.572 16.644 18.108 15.924 17.844 15.816C17.568 15.72 17.376 15.672 17.172 15.96C16.968 16.26 16.404 16.932 16.236 17.124C16.068 17.328 15.888 17.352 15.588 17.196C15.288 17.052 14.328 16.728 13.2 15.72C12.312 14.928 11.724 13.956 11.544 13.656C11.376 13.356 11.52 13.2 11.676 13.044C11.808 12.912 11.976 12.696 12.12 12.528C12.264 12.36 12.324 12.228 12.42 12.036C12.516 11.832 12.468 11.664 12.396 11.52C12.324 11.376 11.724 9.912 11.484 9.312C11.244 8.736 10.992 8.808 10.812 8.796H10.236C10.032 8.796 9.72 8.868 9.444 9.168C9.18 9.468 8.412 10.188 8.412 11.652C8.412 13.116 9.48 14.532 9.624 14.724C9.768 14.928 11.724 17.928 14.7 19.212C15.408 19.524 15.96 19.704 16.392 19.836C17.1 20.064 17.748 20.028 18.264 19.956C18.84 19.872 20.028 19.236 20.268 18.54C20.52 17.844 20.52 17.256 20.436 17.124C20.352 16.992 20.172 16.932 19.872 16.788Z" fill="#EAEBEE"/>
</g>
</svg>
